<svg width="18" height="19" viewBox="0 0 18 19" fill="none" xmlns="http://www.w3.org/2000/svg">
<path d="M11.883 3.00801L10.812 3.59376L11.883 4.17951L12.4688 5.25051L13.0545 4.17951L14.1255 3.59376L13.0545 3.00801L12.4688 1.93701L11.883 3.00801ZM7.809 3.61851C6.82673 3.81782 5.91004 4.26002 5.14264 4.90473C4.37523 5.54944 3.78156 6.37613 3.41583 7.3093C3.05009 8.24248 2.92396 9.2524 3.04894 10.2469C3.17392 11.2413 3.54603 12.1886 4.1313 13.0023C4.71656 13.8159 5.49634 14.47 6.39941 14.9048C7.30248 15.3396 8.30008 15.5412 9.30112 15.4912C10.3022 15.4413 11.2747 15.1414 12.13 14.6188C12.9854 14.0963 13.6961 13.3679 14.1975 12.5C12.4164 12.4862 10.713 11.7689 9.45843 10.5045C8.20389 9.24014 7.49995 7.53116 7.5 5.75001C7.5 5.01501 7.59825 4.29726 7.809 3.61851ZM1.5 9.50001C1.5 5.35776 4.85775 2.00001 9 2.00001H10.3005L9.6495 3.12501C9.21525 3.87501 9 4.76751 9 5.75001C8.99989 6.52522 9.17145 7.29084 9.50237 7.99187C9.83329 8.69291 10.3154 9.31196 10.9139 9.80456C11.5125 10.2972 12.2128 10.6511 12.9644 10.8409C13.716 11.0308 14.5003 11.0518 15.261 10.9025L16.5225 10.6573L16.1152 11.8768C15.1215 14.8528 12.3127 17 9 17C4.85775 17 1.5 13.6423 1.5 9.50001ZM15.375 5.31201L16.0605 6.56451L17.313 7.25001L16.0605 7.93551L15.375 9.18801L14.6895 7.93551L13.437 7.25001L14.6895 6.56451L15.375 5.31201Z" fill="#F8F9FA"/>
</svg>
