<svg width="18" height="19" viewBox="0 0 18 19" fill="none" xmlns="http://www.w3.org/2000/svg">
<g clip-path="url(#clip0_64_1582)">
<path d="M17.1 8.7791H16.218C15.7203 8.7791 15.318 9.1022 15.318 9.5C15.318 9.8969 15.7203 10.2191 16.218 10.2191H17.1C17.5968 10.2191 18 9.8978 18 9.5C18 9.1031 17.5959 8.7791 17.1 8.7791ZM9 4.55C8.34939 4.54798 7.7048 4.67464 7.10333 4.92268C6.50186 5.17073 5.95537 5.53526 5.49532 5.99532C5.03526 6.45537 4.67073 7.00186 4.42268 7.60333C4.17464 8.2048 4.04798 8.84939 4.05 9.5C4.05 12.2459 6.2541 14.45 9 14.45C11.745 14.45 13.95 12.2459 13.95 9.5C13.95 6.7541 11.7441 4.55 9 4.55ZM9 13.1C7.0101 13.1 5.4 11.4881 5.4 9.5C5.4 7.5101 7.0101 5.9 9 5.9C9.95478 5.9 10.8705 6.27928 11.5456 6.95442C12.2207 7.62955 12.6 8.54522 12.6 9.5C12.6 10.4548 12.2207 11.3705 11.5456 12.0456C10.8705 12.7207 9.95478 13.1 9 13.1ZM2.7 9.5C2.7 9.1031 2.2959 8.7791 1.8 8.7791H0.9C0.4023 8.7791 0 9.1022 0 9.5C0 9.8969 0.4023 10.2191 0.9 10.2191H1.8C2.2959 10.2191 2.7 9.8969 2.7 9.5ZM9 3.2C9.3969 3.2 9.7191 2.7977 9.7191 2.3V1.4C9.7191 0.9023 9.3969 0.5 9 0.5C8.6031 0.5 8.2791 0.9023 8.2791 1.4V2.3C8.2791 2.7977 8.6022 3.2 9 3.2ZM9 15.8C8.6022 15.8 8.2791 16.2023 8.2791 16.7V17.6C8.2791 18.0977 8.6022 18.5 9 18.5C9.3969 18.5 9.7191 18.0977 9.7191 17.6V16.7C9.7191 16.2023 9.3969 15.8 9 15.8ZM15.6285 3.8894C15.9804 3.5375 16.0371 3.0245 15.7563 2.7437C15.4755 2.4629 14.9616 2.5205 14.6115 2.8724L13.9815 3.5015C13.6296 3.8534 13.5729 4.3664 13.8537 4.6472C14.1345 4.928 14.6484 4.8704 14.9994 4.5185L15.6285 3.8894ZM3.0006 14.4797L2.3706 15.1106C2.0187 15.4625 1.962 15.9737 2.2428 16.2545C2.5236 16.5353 3.0375 16.4795 3.3876 16.1276L4.0176 15.4985C4.3695 15.1466 4.4262 14.6336 4.1454 14.3519C3.8646 14.0702 3.3507 14.1296 3.0006 14.4797ZM3.3885 2.8715C3.0375 2.5196 2.5236 2.462 2.2428 2.7428C1.962 3.0236 2.0196 3.5375 2.3697 3.8894L2.9997 4.5185C3.3516 4.8704 3.8637 4.928 4.1445 4.6472C4.4253 4.3664 4.3686 3.8525 4.0176 3.5015L3.3885 2.8715ZM13.9806 15.4994L14.6106 16.1285C14.9625 16.4804 15.4746 16.5362 15.7554 16.2572C16.0362 15.9764 15.9795 15.4625 15.6276 15.1115L14.9985 14.4824C14.6466 14.1305 14.1336 14.0729 13.8519 14.3537C13.5702 14.6345 13.6287 15.1475 13.9806 15.4994Z" fill="#212529"/>
</g>
<defs>
<clipPath id="clip0_64_1582">
<rect width="18" height="18" fill="white" transform="translate(0 0.5)"/>
</clipPath>
</defs>
</svg>
