<svg width="38" height="50" viewBox="0 0 38 50" fill="none" xmlns="http://www.w3.org/2000/svg">
<g clip-path="url(#clip0_946_159)">
<path d="M20.9643 45.7446C20.0524 45.7446 19.3135 45.0057 19.3135 44.0938V37.3832C19.3135 36.4713 20.0524 35.7324 20.9643 35.7324C21.8762 35.7324 22.615 36.4713 22.615 37.3832V44.0938C22.615 45.0057 21.8762 45.7446 20.9643 45.7446Z" fill="#495057"/>
<path d="M20.9362 38.7626C14.0479 38.7626 7.2952 35.3675 3.30624 29.1526C-2.92272 19.4491 -0.0935016 6.49078 9.61001 0.26182C10.3769 -0.229201 11.3964 -0.00941067 11.8874 0.757518C12.3784 1.52445 12.1587 2.5439 11.3917 3.03492C3.21739 8.28183 0.837101 19.1965 6.08401 27.3709C11.3263 35.5405 22.2456 37.9255 30.4153 32.6786C31.1822 32.1876 32.2017 32.4073 32.6927 33.1743C33.1837 33.9412 32.9639 34.9607 32.197 35.4517C28.7084 37.6917 24.7989 38.7579 20.9362 38.7579V38.7626Z" fill="#2B5EFF"/>
<path d="M20.9643 32.3794C14.7634 32.3794 9.29669 28.4232 7.36066 22.5403C7.0754 21.6751 7.54772 20.7445 8.41285 20.4593C9.27798 20.174 10.2086 20.6463 10.4938 21.5115C11.9856 26.0382 16.1897 29.0826 20.9596 29.0826C27.0342 29.0826 31.9772 24.1396 31.9772 18.065C31.9772 11.9903 27.0342 7.04738 20.9596 7.04738C16.4609 7.04738 12.4579 9.73631 10.7557 13.903C10.4097 14.7447 9.45101 15.1516 8.60458 14.8055C7.76283 14.4595 7.35598 13.4961 7.70204 12.6544C9.9093 7.24379 15.1141 3.74585 20.9596 3.74585C28.8534 3.74585 35.2741 10.1665 35.2741 18.0603C35.2741 25.954 28.8534 32.3747 20.9596 32.3747L20.9643 32.3794Z" fill="#495057"/>
<path d="M20.9643 25.3787C16.9333 25.3787 13.6504 22.0959 13.6504 18.0649C13.6504 14.0338 16.9333 10.751 20.9643 10.751C22.7367 10.751 24.4482 11.3916 25.781 12.5607C26.4684 13.1593 26.5339 14.2022 25.9353 14.8896C25.3367 15.577 24.2939 15.6425 23.6065 15.0439C22.8769 14.4032 21.937 14.0525 20.9643 14.0525C18.7524 14.0525 16.952 15.8529 16.952 18.0649C16.952 20.2768 18.7524 22.0772 20.9643 22.0772C22.5917 22.0772 23.9946 21.1045 24.6259 19.7109H20.5855C19.6736 19.7109 18.9347 18.9721 18.9347 18.0602C18.9347 17.1483 19.6736 16.4094 20.5855 16.4094H26.6321C27.544 16.4094 28.2829 17.1483 28.2829 18.0602C28.2829 22.0912 25 25.3741 20.969 25.3741L20.9643 25.3787Z" fill="#2B5EFF"/>
<path d="M35.6622 32.473C36.8089 32.473 37.7385 31.5433 37.7385 30.3966C37.7385 29.2499 36.8089 28.3203 35.6622 28.3203C34.5155 28.3203 33.5859 29.2499 33.5859 30.3966C33.5859 31.5433 34.5155 32.473 35.6622 32.473Z" fill="#495057"/>
<path d="M21.0204 50.0001C18.729 50.0001 7.2952 49.7662 7.2952 45.1647C7.2952 42.1484 12.2382 40.998 16.3908 40.5631C17.298 40.4696 18.107 41.1243 18.2052 42.0315C18.2988 42.9387 17.6441 43.7477 16.7368 43.8459C13.7252 44.1592 11.8968 44.7438 11.041 45.1693C12.3644 45.8334 15.8156 46.6985 21.0251 46.6985C26.2346 46.6985 29.6858 45.8287 31.0092 45.1693C30.2189 44.7672 28.5307 44.1967 25.477 43.86C24.5698 43.7617 23.9198 42.9481 24.018 42.0408C24.1162 41.1336 24.9299 40.4789 25.8371 40.5818C29.9009 41.0261 34.7456 42.1858 34.7456 45.1647C34.7456 49.7662 23.3119 50.0001 21.0204 50.0001Z" fill="#495057"/>
</g>
<defs>
<clipPath id="clip0_946_159">
<rect width="37.7385" height="50" fill="white"/>
</clipPath>
</defs>
</svg>
