<svg width="150" height="151" viewBox="0 0 150 151" fill="none" xmlns="http://www.w3.org/2000/svg">
<path fill-rule="evenodd" clip-rule="evenodd" d="M62.1626 19.7H87.8501C99.3501 19.7 108.413 19.7 115.538 20.6375C122.85 21.6375 128.788 23.7 133.475 28.3875C138.163 33.075 140.225 39.0125 141.225 46.325C141.788 50.5125 142.038 55.45 142.1 61.075C142.1 61.325 142.163 61.575 142.163 61.8875V83.7625C142.163 86.325 140.038 88.45 137.475 88.45C134.913 88.45 132.788 86.325 132.788 83.7625V66.575H54.6626V94.7H74.9751C77.5376 94.7 79.6626 96.825 79.6626 99.3875C79.6626 101.95 77.5376 104.075 74.9751 104.075H54.6626V132.2H74.9751C77.5376 132.2 79.6626 134.325 79.6626 136.888C79.6626 139.45 77.5376 141.575 74.9751 141.575H49.9751C49.7251 141.575 49.4126 141.575 49.1626 141.513C43.4751 141.388 38.6001 141.2 34.4126 140.638C27.1001 139.638 21.1626 137.575 16.4751 132.888C11.7876 128.2 9.7251 122.263 8.7251 114.95C8.1626 110.763 7.9126 105.825 7.8501 100.2C7.8501 99.95 7.7876 99.7 7.7876 99.3875V61.95C7.7876 61.7 7.7876 61.3875 7.8501 61.1375C7.9751 55.45 8.1626 50.575 8.7251 46.3875C9.7251 39.075 11.7876 33.1375 16.4751 28.45C21.1626 23.7625 27.1001 21.7 34.4126 20.7C38.6001 20.1375 43.5376 19.8875 49.1626 19.825C49.4126 19.825 49.6626 19.7625 49.9751 19.7625H62.1001L62.1626 19.7ZM45.3501 29.2625C41.6626 29.3875 38.5376 29.575 35.7251 29.95C29.4126 30.825 25.7876 32.3875 23.1626 35.0125C20.5376 37.6375 18.9126 41.2625 18.1001 47.575C17.7251 50.3875 17.5376 53.5125 17.4126 57.2H45.3501V29.2625ZM54.7251 57.2V29.075H87.5376C99.4751 29.075 107.913 29.075 114.35 29.95C120.663 30.825 124.288 32.3875 126.913 35.0125C129.538 37.6375 131.163 41.2625 131.975 47.575C132.35 50.3875 132.538 53.5125 132.663 57.2H54.7251ZM45.3501 66.575H17.2251V94.7H45.3501V66.575ZM45.3501 104.075H17.4126C17.5376 107.763 17.7251 110.888 18.1001 113.7C18.9751 120.013 20.5376 123.638 23.1626 126.263C25.7876 128.888 29.4126 130.513 35.7251 131.325C38.5376 131.7 41.6626 131.888 45.3501 132.013V104.075ZM105.663 86.575C108.35 80.7625 116.663 80.7625 119.413 86.575L123.35 94.95C124.6 97.6375 126.788 99.825 129.475 101.075L137.85 105.013C143.663 107.7 143.663 116.013 137.85 118.763L129.475 122.7C126.788 123.95 124.6 126.138 123.35 128.825L119.413 137.2C116.725 143.013 108.413 143.013 105.663 137.2L101.725 128.825C100.475 126.138 98.2876 123.95 95.6001 122.7L87.2251 118.763C81.4126 116.075 81.4126 107.763 87.2251 105.013L95.6001 101.075C98.2876 99.825 100.475 97.6375 101.725 94.95L105.663 86.575ZM112.538 94.0125L110.225 98.95C108.046 103.669 104.257 107.458 99.5376 109.638L94.6001 111.95L99.5376 114.263C104.225 116.45 108.038 120.2 110.225 124.95L112.538 129.888L114.85 124.95C117.038 120.263 120.788 116.45 125.538 114.263L130.475 111.95L125.538 109.638C120.818 107.458 117.03 103.669 114.85 98.95L112.538 94.0125Z" fill="url(#paint0_linear_62_1350)"/>
<defs>
<linearGradient id="paint0_linear_62_1350" x1="8.00009" y1="20" x2="142" y2="142" gradientUnits="userSpaceOnUse">
<stop stop-color="white"/>
<stop offset="0.5" stop-color="#E476AD"/>
<stop offset="1" stop-color="#6610F2"/>
</linearGradient>
</defs>
</svg>
