<svg width="100" height="100" viewBox="0 0 100 100" fill="none" xmlns="http://www.w3.org/2000/svg">
<g opacity="0.4">
<path opacity="0.3" d="M75.7101 9.70834H24.2893C13.751 9.70834 5.20801 18.7538 5.20801 29.912V70.1297C5.20801 81.2878 13.751 90.3333 24.2893 90.3333H75.7101C86.2484 90.3333 94.7913 81.2878 94.7913 70.1297V29.912C94.7913 18.7538 86.2484 9.70834 75.7101 9.70834Z" fill="#EFE6FD"/>
<path d="M50.0012 52.2603C46.4349 52.2464 42.9839 50.9958 40.2366 48.7218L25.0075 36.1353C24.3244 35.5413 23.9053 34.7004 23.8423 33.7973C23.7793 32.8943 24.0776 32.0033 24.6715 31.3202C25.2655 30.6371 26.1065 30.218 27.0095 30.155C27.9125 30.092 28.8036 30.3903 29.4866 30.9843L44.6262 43.5707C46.1685 44.869 48.1197 45.5808 50.1356 45.5808C52.1515 45.5808 54.1027 44.869 55.645 43.5707L70.3814 31.0739C71.0366 30.5601 71.8611 30.3118 72.691 30.3782C73.5209 30.4446 74.2954 30.8208 74.8606 31.4322C75.4334 32.1134 75.7166 32.9918 75.6496 33.8792C75.5826 34.7667 75.1708 35.5926 74.5023 36.1801L59.7658 48.677C57.0343 50.9837 53.5764 52.2527 50.0012 52.2603Z" fill="#EFE6FD"/>
</g>
</svg>
